<svg width="1024" height="1024" viewBox="0 0 1024 1024" fill="none" xmlns="http://www.w3.org/2000/svg">
<path d="M603.196 558.409C602.447 560.23 602.455 562.284 603.207 564.114C603.959 565.945 605.395 567.402 607.207 568.169C609.02 568.937 611.065 568.954 612.904 568.22C614.741 567.487 616.222 566.063 617.008 564.258C617.008 564.258 617.008 564.258 617.008 564.258C625.434 546.452 634.282 527.597 642.518 509.123C643.249 507.491 643.933 505.966 644.667 504.319C668.043 450.87 688.792 396.658 715.901 346.449C735.024 311.881 757.914 277.577 790.772 260.66C811.928 249.683 837.156 246.904 859.721 253.096C878.609 257.928 891.862 270.469 901.048 288.551C914.105 314.262 920.519 344.94 924.035 375.134C927.699 408.393 927.435 442.483 924.368 476.033C920.615 517.131 910.288 556.911 893.392 594.446C886.07 611.074 875.959 622.933 861.833 626.886C838.252 634.03 811.998 634.882 784.527 635.241C768.849 635.645 752.368 631.56 735.009 626.63C704.607 617.665 673.515 606.443 643.503 594.798L644.178 595.07C637.436 592.114 630.858 589.031 624.543 585.738C612.392 579.428 602.027 572.602 591.777 563.771L592.542 564.441C591.786 563.725 591.198 563.118 590.84 562.699C590.474 562.269 590.338 562.065 590.115 561.708C589.702 561.072 588.705 559.084 587.593 556.66C585.363 551.847 581.318 548.139 576.319 546.365C571.321 544.59 565.778 544.894 560.939 547.198C556.1 549.501 552.368 553.611 550.594 558.609C548.819 563.609 549.147 569.087 551.476 573.852C551.476 573.852 551.476 573.852 551.476 573.852C552.805 576.516 554.218 579.629 556.915 583.705C559.645 587.831 563.111 591.296 565.667 593.597L566.432 594.266C578.554 604.355 592.995 613.453 607.002 620.291C614.401 623.956 621.789 627.224 629.191 630.291L629.866 630.563C661.388 642.037 692.496 652.593 725.357 661.571C743.775 666.354 763.865 671.235 785.463 670.334C812.981 669.337 842.623 668.203 871.885 658.743C897.587 651.121 914.816 627.591 922.922 607.166C940.249 566.546 950.732 522.45 953.792 478.47C956.29 442.968 955.865 407.364 951.218 371.791C946.668 339.429 939.671 307.122 923.47 276.536C912.741 255.213 890.609 234.989 865.827 229.81C836.987 222.56 805.994 226.839 780.294 240.819C740.458 262.812 717.579 300.952 698.314 337.067C671.356 389.594 651.665 444.597 629.663 497.804C628.965 499.458 628.317 500.99 627.623 502.628C619.716 521.383 611.71 539.377 603.196 558.409Z" fill="#96150F"/>
<path d="M573.952 513.566C573.768 515.525 574.377 517.486 575.63 519.016C576.885 520.546 578.681 521.52 580.638 521.725C582.594 521.93 584.554 521.349 586.098 520.112C587.641 518.875 588.643 517.083 588.87 515.129C586.632 492.141 581.025 477.442 576.01 459.151C575.794 458.419 575.57 457.68 575.338 456.934C560.959 413.595 540.468 374.285 526.256 333.234C514.615 300.617 508.887 267.862 509.358 233.332C509.437 196.322 511.983 158.758 515.78 121.759C517.693 105.288 519.495 85.5957 525.97 78.546C538.284 66.2832 573.913 66.6236 601.706 67.41C628.358 68.186 653.822 79.8877 676.768 96.4173C690.656 105.625 693.43 130.338 694.193 154.891C695.709 185.849 684.859 216.049 671.934 247.179L672.233 246.482C651.778 289.023 630.104 332.879 613.531 378.998C600.046 416.37 590.013 454.504 581.053 492.433C576.669 511.007 572.545 529.549 568.434 548.013C567.28 553.191 568.241 558.593 571.137 563.038C574.031 567.482 578.624 570.605 583.872 571.713C589.12 572.82 594.583 571.82 599.027 568.925C603.472 566.03 606.534 561.477 607.571 556.275C607.571 556.275 607.571 556.275 607.571 556.275C611.274 537.724 614.958 519.258 618.861 500.924C626.836 463.478 635.732 426.539 647.707 390.921C662.511 346.692 682.305 304.19 702.283 260.212C702.345 260.073 702.527 259.656 702.582 259.515C715.013 227.584 727.6 191.367 724.939 153.45C722.726 128.709 723.327 94.4482 693.384 72.5381C667.606 54.7728 636.013 40.5063 602.291 40.3046C572.103 42.1869 540.236 33.4457 506.621 62.4963C491.688 83.9822 494.423 101.88 491.902 119.48C488.854 157.49 487.111 195.288 487.864 233.621C488.038 269.32 495.381 306.498 508.191 339.673C523.965 382.031 545.469 421.351 559.867 461.904C560.094 462.585 560.314 463.255 560.525 463.914C565.813 480.488 571.82 500.509 573.952 513.566Z" fill="#96150F"/>
<path d="M574.703 535.942C576.648 535.618 578.391 534.528 579.55 532.923C580.708 531.316 581.188 529.325 580.882 527.377C580.575 525.43 579.507 523.682 577.911 522.509C576.316 521.336 574.322 520.835 572.372 521.124C572.372 521.124 572.372 521.124 572.372 521.124C558.888 518.82 535.525 512.152 516.527 509.02C512.372 508.274 508.184 507.648 504.031 507.114C472.593 503.256 441.528 503.198 410.502 503.54C355.325 504.462 300.501 508.305 245.998 510.557C206.523 512.317 168.15 507.548 136.337 485.933C102.854 464.19 85.0981 421.645 75.067 380.397C69.8857 357.793 77.7294 331.001 87.4338 305.862C94.8721 286.204 106.53 270.229 122.995 257.401C141.483 242.727 163.598 232.157 186.792 225.153C212.785 217.395 240.689 213.526 268.567 211.548C305.308 208.933 341.986 213.578 375.425 227.173C390.182 232.84 402.362 243.952 415.088 257.346C435.671 279.478 455.131 304.816 472.958 330.113C496.832 363.991 512.171 402.999 525.41 444.159L524.873 442.218C529.287 463.214 533.694 484.119 537.976 504.985C539.902 514.437 541.808 523.762 543.385 532.916L543.54 533.677C546.8 548.503 550.567 562.318 554.492 576.31C555.932 581.415 559.339 585.721 563.991 588.271C568.641 590.823 574.153 591.41 579.291 589.912C584.428 588.414 588.761 584.956 591.311 580.305C593.863 575.654 594.422 570.192 592.893 565.113C592.893 565.113 592.893 565.113 592.893 565.113C588.876 551.723 584.93 538.067 581.85 525.113L582.004 525.873C580.113 515.951 577.979 506.391 575.869 496.883C571.18 475.892 566.414 455.093 561.63 434.149L561.094 432.207C546.858 390.411 529.187 347.092 501.773 309.641C482.417 283.223 462.555 258.126 439.336 233.969C425.619 219.998 408.717 204.559 387.342 196.739C348.706 181.783 306.501 177.364 266.182 180.977C236.703 183.61 207.217 188.102 178.111 197.316C152.179 205.66 127.112 218.023 105.48 235.794C86.2094 251.083 70.5519 273.4 62.5139 296.475C52.9679 323.492 42.9798 353.437 50.6503 386.47C62.515 430.47 81.1905 477.749 124.314 505.338C160.391 529.174 206.483 534.014 246.984 531.255C301.936 528.02 356.491 523.248 410.91 521.395C441.507 520.512 472.22 520.094 502.096 523.248C506.031 523.684 509.968 524.205 513.827 524.828C534.107 527.569 548.933 533.506 574.703 535.942Z" fill="#96150F"/>
<path d="M584.821 536.217C584.406 534.289 583.237 532.599 581.579 531.517C579.92 530.434 577.909 530.048 575.978 530.445C574.047 530.841 572.352 531.989 571.254 533.638C570.157 535.286 569.748 537.3 570.127 539.235C564.304 552.908 554.21 579.914 545.94 600.268C543.667 605.97 541.39 611.675 539.113 617.387C530.113 639.915 525.8 662.442 518.432 683.906C506.486 719.753 493.479 755.91 477.722 789.625C461.237 827.161 420.024 842.653 379.004 854.803C345.544 864.645 309.709 868.836 274.463 868.874C239.783 868.727 204.817 862.931 171.024 853.695C150.678 847.996 129.996 841.181 116.15 829.895C96.94 813.35 92.2897 776.717 86.9289 744.026C82.2091 711.915 102.7 676.678 124.715 646.112C137.206 628.813 162.67 618.839 188.245 610.578C229.151 597.72 274.108 593.155 318.869 589.226C381.263 584.111 444.231 581.625 507.6 577.946C510.539 577.769 513.429 577.589 516.289 577.406C539.631 575.867 563.872 574.096 587.625 569.91C592.859 569.048 597.517 566.141 600.569 561.802C603.621 557.465 604.818 552.05 603.9 546.777C602.982 541.504 600.027 536.812 595.689 533.761C591.35 530.708 585.985 529.546 580.767 530.502C580.767 530.502 580.767 530.502 580.767 530.502C558.74 534.797 536.583 536.813 513.46 538.759C510.661 538.99 507.827 539.217 504.941 539.442C442.292 544.211 379.02 547.835 315.622 554.173C269.953 559.077 223.787 564.262 177.95 579.479C151.317 589.11 120.417 599.119 99.2534 627.984C76.9 661.361 51.3704 700.127 58.1951 748.768C65.3593 781.709 65.7212 820.524 99.0079 851.125C119.969 867.121 142.575 873.03 164.324 878.929C200.219 888.036 237.132 893.54 274.63 893.045C312.149 892.295 349.35 887.352 385.608 876.013C426.052 863.327 476.393 844.184 495.712 798.062C511.639 762.281 523.871 726.066 535.417 689.293C542.604 666.938 546.719 643.897 554.568 623.39C556.742 617.64 558.916 611.895 561.088 606.151C569.139 583.01 578.142 567.197 584.821 536.217Z" fill="#96150F"/>
<path d="M626.16 559.312C623.92 554.503 619.867 550.81 614.859 549.062C609.852 547.312 604.299 547.651 599.457 549.986C594.616 552.321 590.894 556.456 589.146 561.464C587.396 566.472 587.764 571.942 590.132 576.689C596.667 590.077 603.308 604.787 609.657 619.034C620.026 642.366 630.067 665.899 639.92 689.592C653.441 722.082 660.63 757.853 664.662 794.222C669.234 835.88 667.711 878.867 654.562 917.149C651.813 925.193 646.448 931.296 638.004 936.584C627.271 943.251 612.573 947.103 598.142 948.49C579.691 950.53 563.93 946.429 549.699 935.169C526.529 916.572 509.481 887.285 499.808 857.23C489.257 823.469 486.717 786.355 487.298 749.744C487.751 719.031 492.878 689.333 505.001 661.115L504.276 662.486C517.41 642.5 537.325 624.596 556.618 607.511C562.242 602.606 567.952 597.766 573.721 592.98L573.836 592.886C580.065 587.469 587.183 581.343 592.361 574.004C593.54 572.435 594.048 570.448 593.783 568.49C593.519 566.531 592.504 564.762 590.95 563.562C589.397 562.362 587.429 561.827 585.467 562.065C583.505 562.304 581.711 563.297 580.49 564.835C580.49 564.835 580.49 564.835 580.49 564.835C575.908 570.98 570.174 575.596 563.773 580.894L563.888 580.8C557.906 585.502 551.971 590.27 546.099 595.125C525.804 612.312 505.395 629.055 488.866 652.576L488.14 653.948C474.48 683.383 467.733 716.813 466.5 749.069C464.95 787.155 466.291 825.903 477.065 864.125C487.328 898.302 504.211 930.923 533.16 955.787C550.721 971.251 577.756 978.903 600.402 976.46C618.151 975.087 635.913 971.562 653.188 961.69C665.422 954.767 677.703 942.438 682.996 927.589C699.5 883.125 701.935 836.292 698.252 790.957C694.988 752.532 688.441 713.469 674.008 675.945C664.694 651.776 655.179 627.738 645.271 603.762C639.129 588.961 633.066 574.466 626.16 559.312Z" fill="#96150F"/>
</svg>
