<svg width="68" height="156" viewBox="0 0 68 156" fill="none" xmlns="http://www.w3.org/2000/svg">
<g clip-path="url(#clip0_2103_7)">
<path d="M6.44905 1.9774C8.38453 1.69971 33.0516 0.254133 47.5142 0.176457C49.56 0.283909 51.8407 0.456987 54.0458 0.624638C55.6645 0.747623 57.2652 0.869601 58.7491 0.96346C62.5594 1.2049 64.9374 3.37664 65.6265 7.2462C66.0122 9.67546 66.2408 12.1271 66.311 14.5859C67.2368 34.3364 67.0284 54.4134 66.8271 73.8308C66.779 78.448 66.7359 83.0659 66.6981 87.6831C66.6233 98.0186 66.4007 108.886 66.0174 120.905C65.8426 126.376 65.5484 131.931 65.2633 137.304C65.0845 140.677 64.9058 144.05 64.7542 147.424C64.5607 151.674 62.9013 153.897 59.1974 154.857C57.104 155.321 54.9683 155.567 52.8245 155.59L51.8697 155.635C49.2245 155.764 46.1974 155.824 42.9536 155.824C29.1413 155.824 11.4632 154.801 3.41357 154.283C2.39376 154.217 1.43634 153.765 0.738276 153.017C0.0395664 152.268 -0.348176 151.279 -0.345595 150.254C-0.343014 149.229 0.049891 148.243 0.752472 147.498C1.45441 146.753 2.41376 146.305 3.43421 146.245C8.77163 145.931 18.6013 145.339 24.4665 144.927C29.9568 144.538 35.5445 144.294 40.9491 144.061C44.0542 143.927 47.1594 143.792 50.2632 143.63C51.2647 143.558 52.2616 143.433 53.2497 143.255C53.5839 143.202 53.9207 143.147 54.262 143.096C54.3071 142.816 54.3529 142.549 54.3968 142.29C54.5343 141.576 54.6313 140.855 54.6871 140.129C54.9039 136.208 55.1549 132.223 55.3968 128.369C55.9774 119.193 56.5755 109.704 56.7439 100.371C57.0303 84.554 57.002 68.4634 56.9691 52.902C56.9596 47.9151 56.9534 42.9283 56.9503 37.9407C56.9503 30.4442 56.7968 22.9979 56.6471 16.7023C56.6097 15.1248 56.4432 13.5582 56.251 11.7432C56.1736 11.015 56.0929 10.2545 56.0162 9.44476C53.7658 9.292 49.1129 9.1806 43.3516 9.04401C28.5981 8.69318 8.39228 8.21152 4.65034 6.48322C4.56279 6.44277 4.48518 6.3837 4.42279 6.31003C4.3604 6.23636 4.31473 6.15036 4.28905 6.05718C4.11182 5.57909 4.03989 5.06767 4.07821 4.55903C4.11647 4.05038 4.26415 3.55612 4.51099 3.11018C4.73247 2.79131 5.0206 2.52514 5.35537 2.3295C5.69008 2.13386 6.06337 2.01343 6.44905 1.9774Z" fill="black"/>
</g>
<defs>
<clipPath id="clip0_2103_7">
<rect width="67.35" height="156" fill="white"/>
</clipPath>
</defs>
</svg>
