<svg width="68" height="156" viewBox="0 0 68 156" fill="none" xmlns="http://www.w3.org/2000/svg">
<g clip-path="url(#clip0_2103_3)">
<path d="M60.5509 1.9774C58.6155 1.69971 33.9484 0.254133 19.4858 0.176457C17.44 0.283909 15.1593 0.456987 12.9542 0.624638C11.3355 0.747623 9.73482 0.869601 8.25095 0.96346C4.44061 1.2049 2.06256 3.37664 1.37353 7.2462C0.987835 9.67546 0.759203 12.1271 0.689029 14.5859C-0.236777 34.3364 -0.0284216 54.4134 0.172869 73.8308C0.221041 78.448 0.26406 83.0659 0.301906 87.6831C0.376745 98.0186 0.599326 108.886 0.982551 120.905C1.15739 126.376 1.45158 131.931 1.73675 137.304C1.91545 140.677 2.09417 144.05 2.24578 147.424C2.43933 151.674 4.09871 153.897 7.80256 154.857C9.89604 155.321 12.0317 155.567 14.1755 155.59L15.1303 155.635C17.7755 155.764 20.8026 155.824 24.0464 155.824C37.8587 155.824 55.5368 154.801 63.5864 154.283C64.6062 154.217 65.5637 153.765 66.2617 153.017C66.9604 152.268 67.3482 151.279 67.3456 150.254C67.343 149.229 66.9501 148.243 66.2475 147.498C65.5456 146.753 64.5862 146.305 63.5658 146.245C58.2284 145.931 48.3987 145.339 42.5335 144.927C37.0432 144.538 31.4555 144.294 26.0509 144.061C22.9458 143.927 19.8406 143.792 16.7368 143.63C15.7353 143.558 14.7384 143.433 13.7503 143.255C13.4161 143.202 13.0793 143.147 12.738 143.096C12.6929 142.816 12.6471 142.549 12.6032 142.29C12.4657 141.576 12.3687 140.855 12.3129 140.129C12.0961 136.208 11.8451 132.223 11.6032 128.369C11.0226 119.193 10.4245 109.704 10.2561 100.371C9.96965 84.554 9.99804 68.4634 10.0309 52.902C10.0404 47.9151 10.0466 42.9283 10.0497 37.9407C10.0497 30.4442 10.2032 22.9979 10.3529 16.7023C10.3903 15.1248 10.5568 13.5582 10.749 11.7432C10.8264 11.015 10.9071 10.2545 10.9838 9.44476C13.2342 9.292 17.8871 9.1806 23.6484 9.04401C38.4019 8.69318 58.6077 8.21152 62.3497 6.48322C62.4372 6.44277 62.5148 6.3837 62.5772 6.31003C62.6396 6.23636 62.6853 6.15036 62.7109 6.05718C62.8882 5.57909 62.9601 5.06767 62.9218 4.55903C62.8835 4.05038 62.7359 3.55612 62.489 3.11018C62.2675 2.79131 61.9794 2.52514 61.6446 2.3295C61.3099 2.13386 60.9366 2.01343 60.5509 1.9774Z" fill="black"/>
</g>
<defs>
<clipPath id="clip0_2103_3">
<rect width="67.35" height="156" fill="white"/>
</clipPath>
</defs>
</svg>
