<svg width="32" height="31" viewBox="0 0 32 31" fill="none" xmlns="http://www.w3.org/2000/svg">
<g clip-path="url(#clip0_2117_33)">
<path d="M0.224502 0.24145C0.693295 -0.0879091 1.19665 0.00405078 1.64006 0.0844938C1.7389 0.102544 1.83719 0.120589 1.93441 0.1338C6.06011 0.69091 10.1217 1.62701 14.0644 2.92943C16.4941 3.73844 18.8793 4.50832 21.153 5.21779C22.0172 5.48724 22.5743 5.97972 22.9076 6.76741C23.9338 9.19091 24.5484 11.2854 24.8438 13.3586C24.863 13.4932 24.8784 13.6287 24.8939 13.7661C24.9265 14.1491 24.9943 14.5285 25.0965 14.8999C25.191 14.8109 25.2833 14.7247 25.3724 14.6408C25.6617 14.3684 25.9348 14.1114 26.2154 13.8707C26.7576 13.4059 27.1305 13.3737 27.7503 13.7399C27.9604 13.8562 28.1558 13.9956 28.3328 14.1555C29.422 15.1998 30.5096 16.2546 31.5652 17.2907C31.7417 17.441 31.8715 17.636 31.94 17.8539C32.0084 18.0717 32.0127 18.3037 31.9525 18.5239C31.9478 18.5461 31.9374 18.5666 31.9222 18.5839C31.6875 18.8509 31.4488 19.1318 31.204 19.4196C30.6369 20.0867 30.0513 20.7751 29.4066 21.4253C27.3948 23.4554 25.1715 25.6463 22.4117 28.3203C21.7614 28.9505 21.0674 29.557 20.3962 30.1435C20.0869 30.4139 19.7776 30.6845 19.4712 30.9579C19.4454 30.9809 19.4117 30.9936 19.3767 30.9935H18.5447C18.5173 30.9935 18.4904 30.9856 18.4676 30.9708C18.4448 30.956 18.427 30.9351 18.4164 30.9105C18.4043 30.8817 18.3943 30.8504 18.3846 30.819C18.3771 30.7886 18.3658 30.7593 18.3507 30.7318C17.7885 30.2532 17.2249 29.776 16.6599 29.3002C15.9723 28.7195 15.2856 28.1374 14.5999 27.5539C14.2306 27.2383 13.8462 26.8345 13.7959 26.232C13.7951 26.2222 13.7953 26.2124 13.7967 26.2026C13.8738 25.6663 14.2404 25.3375 14.5949 25.0191C14.8623 24.7788 15.1162 24.5507 15.254 24.24L15.1878 24.2073C15.0838 24.1529 14.9765 24.1048 14.8663 24.0634C14.1995 23.8315 13.5316 23.6018 12.8629 23.3744C11.4232 22.8819 9.93441 22.3727 8.48334 21.836C7.63271 21.5213 6.82393 21.0741 6.04216 20.6417L6.00057 20.6187C5.37029 20.2699 4.97441 19.6922 4.82359 18.9018C4.70207 18.2641 4.54653 17.6089 4.36114 16.9546C2.6777 11.0134 1.38231 6.46852 0.161041 2.21877C-0.0574227 1.45907 -0.0526968 0.867601 0.175894 0.30123C0.185885 0.277202 0.202763 0.256447 0.224502 0.24145ZM13.4161 15.408C13.7805 15.5177 14.1747 15.4867 14.5161 15.3213C14.8575 15.156 15.1198 14.8691 15.2479 14.5209C15.5603 13.7526 15.2594 13.0476 14.4812 12.7248C14.0763 12.5586 13.646 12.4575 13.2075 12.4255C13.1529 12.4216 13.1001 12.4196 13.0491 12.4196C12.7742 12.4028 12.5031 12.4891 12.292 12.6606C12.0838 12.8483 11.9792 13.1453 11.9807 13.5435C11.9838 14.3501 12.6277 15.1862 13.4162 15.4086L13.4161 15.408ZM4.56462 3.42725C5.0056 3.84346 5.42227 4.23652 5.82207 4.66018C6.24064 5.10491 6.67959 5.54612 7.10396 5.97318C7.68779 6.56101 8.29215 7.16886 8.85519 7.79448C9.52759 8.54097 10.1495 9.30444 10.808 10.1128C11.0761 10.4419 11.3467 10.7741 11.6234 11.1082L11.7656 11.0667C11.9379 11.0164 12.1166 10.964 12.2948 10.9185C13.2721 10.6808 14.3029 10.7596 15.2297 11.1427C16.7049 11.7133 17.4795 12.997 17.2512 14.493C17.1707 15.0665 16.9484 15.6127 16.603 16.0849C16.2576 16.5573 15.7993 16.9417 15.2675 17.2054C14.7649 17.4459 14.2092 17.5634 13.649 17.5474C13.0886 17.5315 12.541 17.3826 12.054 17.1138C11.2856 16.7274 10.6612 16.1178 10.2687 15.3702C9.65681 14.1867 9.70501 13.1479 10.4164 12.1944C10.4368 12.167 10.4584 12.1406 10.4802 12.1142C10.5521 12.0366 10.6055 11.9445 10.6364 11.8446C10.6433 11.8262 10.6499 11.808 10.6576 11.7898C10.6576 11.7821 10.6576 11.7742 10.6585 11.7665C10.6601 11.7501 10.6601 11.7336 10.6585 11.7172C10.6537 11.6968 10.6439 11.6778 10.6302 11.6617C7.92084 9.04467 5.21029 6.42888 2.39389 3.71083C2.414 3.8528 2.44425 3.99328 2.48435 4.13124C2.86079 5.32362 3.23885 6.51551 3.61853 7.70695C4.23422 9.64203 4.87071 11.6432 5.48479 13.615C5.83989 14.7556 6.17839 15.9777 6.4907 17.2475C6.57684 17.6451 6.75723 18.0178 7.01755 18.3363C7.278 18.6548 7.61124 18.9103 7.99105 19.0825C8.68763 19.4191 9.33897 19.7234 9.98207 20.012C10.6032 20.2911 11.2513 20.5471 11.8772 20.7947C13.4435 21.4139 15.0618 22.0538 16.4569 23.123L23.7152 16.1243C23.7066 16.0297 23.7017 15.9401 23.6967 15.8547C23.6964 15.6827 23.6723 15.5115 23.6248 15.3458C22.8433 13.1562 22.0371 10.93 21.2575 8.77731L20.6336 7.05387C19.5309 6.68318 18.4163 6.29785 17.3379 5.92506C12.7249 4.33007 7.95905 2.68221 2.89995 1.76189C3.45191 2.37718 4.01643 2.9098 4.56476 3.42712L4.56462 3.42725ZM16.0758 26.1139L19.0568 28.8947C20.9336 27.469 28.9838 19.828 30.1159 18.3978C29.4187 17.3809 28.0048 15.866 27.1503 15.2193L27.1282 15.2324C27.0582 15.2707 26.9929 15.3165 26.9333 15.3688C23.7579 18.4305 20.5846 21.494 17.4134 24.5593L17.2484 24.7177C16.8164 25.1311 16.3705 25.5576 16.076 26.1139H16.0758Z" fill="black"/>
</g>
<defs>
<clipPath id="clip0_2117_33">
<rect width="32" height="31" fill="white" transform="matrix(-1 0 0 1 32 0)"/>
</clipPath>
</defs>
</svg>
