<svg width="32" height="32" viewBox="0 0 112 137" fill="none" xmlns="http://www.w3.org/2000/svg">
<g clip-path="url(#clip0_2129_228)">
<path d="M100.682 119.381C103.839 114.796 106.136 109.675 107.461 104.268C110.152 93.1758 111.437 83.5979 111.437 74.5359C111.437 72.9475 111.398 71.3716 111.319 69.8102C111.079 66.1931 110.284 62.6343 108.962 59.2588C106.973 53.9608 101.802 51.1131 96.0933 52.1705C94.6619 52.5029 93.2777 53.0132 91.9729 53.6892C91.4544 53.9308 90.9228 54.1794 90.3859 54.4039C83.8763 45.6227 78.9 44.4598 70.1707 49.6961C68.5587 47.3162 66.5766 45.0729 63.2214 44.4021C59.983 43.7543 57.4108 45.0623 54.4757 46.923C54.3936 45.6635 54.3214 44.4289 54.2505 43.2186C54.072 40.1798 53.9027 37.3116 53.6172 34.4238L53.3697 31.8999C52.7843 25.9122 52.1791 19.7213 51.2038 13.6889C50.7332 10.7813 49.3274 8.01062 47.9674 5.33078L47.8926 5.18464C46.2012 1.84914 43.6852 0.25279 40.6195 0.568489C36.7569 0.966229 33.9655 2.95354 32.7592 6.16435C31.9519 8.59109 31.4071 11.0976 31.1347 13.6408L31.0231 14.4135C30.8748 15.6658 30.823 16.9277 30.8689 18.188C30.8748 18.7393 30.8814 19.2904 30.8689 19.8391C30.8203 22.3984 30.7652 24.9583 30.7035 27.5184C30.5722 33.3861 30.4324 39.4537 30.4114 45.4238C30.3937 50.0477 30.5138 54.622 30.6398 59.4697C30.6904 61.4262 30.7422 63.4134 30.7855 65.4421L30.2657 65.045C29.6849 64.6007 29.2313 64.2575 28.766 63.9227C23.2423 59.9913 16.478 58.2012 9.7322 58.8855C5.39512 59.2412 2.53742 61.1618 1.23852 64.5957C-0.347188 68.7896 0.212675 72.517 2.90432 75.6772C3.5029 76.3493 4.14348 76.9814 4.82279 77.5708C5.41415 78.0866 5.97729 78.6334 6.51155 79.2077C7.42058 80.2217 8.37423 81.2325 9.29704 82.2104C11.8056 84.7124 14.0877 87.4309 16.1184 90.3339C18.2193 93.6957 20.1286 97.1736 21.8377 100.75C22.8078 102.687 23.8113 104.688 24.8634 106.622C27.3306 111.15 29.9828 115.967 32.9042 120.648C34.1368 122.572 35.7035 124.26 37.5301 125.632C50.9374 135.861 65.5671 138.591 81.0134 133.745C89.0261 131.361 95.9725 126.288 100.682 119.381ZM33.1326 79.4951C34.8148 79.503 36.0487 78.445 36.518 76.5882C36.7635 75.5834 36.8856 74.5529 36.8816 73.5185C36.8888 71.1669 36.8685 66.436 36.8422 60.4481C36.7766 45.6306 36.6795 23.2396 36.9354 15.2867C37.0273 13.3986 37.2492 11.5193 37.601 9.66204C37.7506 8.82796 38.0821 8.03727 38.5717 7.34595C39.3304 6.29974 40.1981 5.75168 41.0152 5.80156C41.7799 5.84882 42.4808 6.40851 43.0407 7.42189C44.2332 9.53832 45.1147 11.8152 45.6595 14.1824C46.3739 17.5724 46.8331 21.011 47.0335 24.4697C47.256 28.0369 47.3747 31.673 47.4929 35.1896C47.5723 37.6292 47.6543 40.1515 47.7705 42.6311C47.9674 46.8245 48.251 51.419 48.6618 57.0911C48.8279 59.3798 49.8432 60.7172 51.5143 60.8583C53.7458 61.0473 54.5813 59.3542 55.2554 57.9936C55.4936 57.5112 55.7266 57.0228 55.961 56.5338C56.7993 54.598 57.8441 52.7585 59.0773 51.0469C60.048 49.8077 61.2911 49.2046 62.4902 49.3923C63.7176 49.5846 64.7447 50.5737 65.3085 52.1003C65.7543 53.5383 66.0044 55.0297 66.0522 56.5344C66.0896 57.0096 66.127 57.4843 66.1749 57.9529C66.2118 58.4881 66.1978 59.0255 66.1329 59.5582C66.1027 59.906 66.0725 60.2544 66.0673 60.6016V60.6991C66.0673 62.3471 66.8463 63.3643 68.3257 63.6445C69.9856 63.9589 71.1906 63.1628 71.717 61.4025C71.8141 61.0782 71.8844 60.7463 71.9539 60.4116C72.0309 59.9823 72.1426 59.5597 72.288 59.1485C72.4534 58.7206 72.6162 58.2889 72.7731 57.8564C73.2633 56.402 73.8782 54.9927 74.6108 53.644C75.8782 51.4781 77.3832 50.966 79.9764 51.8212C82.7487 52.7348 84.4171 54.5561 84.937 57.236C85.2009 58.8104 85.3523 60.4019 85.3898 61.998L85.4325 62.8722C85.5139 64.4179 85.6143 66.3415 87.7776 66.9689C89.931 67.5938 91.0199 66.1052 91.8705 64.6611L92.0674 64.3291C92.7283 63.2061 93.4115 62.0444 94.1755 60.9772C95.84 58.6512 97.4191 57.7893 99.4538 58.0964C101.677 58.4312 102.575 60.1745 103.44 62.2472C105.488 67.3319 106.199 72.8563 105.504 78.294C104.838 84.3323 103.891 90.8905 102.522 98.9326C101.395 104.991 98.913 110.715 95.2618 115.678C91.8528 120.481 86.6638 124.014 79.8313 126.18C66.7918 130.31 54.1285 128.079 42.192 119.551C41.0231 118.747 40.0051 117.742 39.1854 116.583C37.5353 114.12 35.4062 110.854 33.573 107.436C31.0415 102.716 28.6045 97.8614 26.3297 93.0078C22.0733 83.928 16.7576 76.9387 10.0774 71.6388C9.14346 70.8899 8.34273 69.9887 7.70805 68.9727C7.34904 68.4431 7.14425 67.8235 7.11734 67.1836C7.11734 66.9611 7.15016 66.7399 7.21514 66.5272C7.39629 66.0822 7.66998 65.6812 8.01916 65.3511C8.36833 65.0211 8.78379 64.7697 9.23797 64.614C12.7212 63.0841 16.1952 63.9852 18.8363 64.9422C25.4331 67.3325 28.9498 70.9897 29.9015 76.4517C30.2296 78.3794 31.411 79.4886 33.1326 79.4951Z" fill="black"/>
</g>
<defs>
<clipPath id="clip0_2129_228">
<rect width="111.577" height="136.518" fill="white"/>
</clipPath>
</defs>
</svg>
